 <svg
                      xmlns="http://www.w3.org/2000/svg"
                      width="24"
                      height="24"
                      viewBox="0 0 24 24"
                      fill="none"
                    >
                      <path
                        d="M16.7339 9.07903C17.1747 8.66825 17.1989 7.97795 16.7882 7.53721C16.3774 7.09647 15.6871 7.07218 15.2463 7.48296L12.0542 10.4581L9.07903 7.26598C8.66825 6.82524 7.97795 6.80095 7.53721 7.21173C7.09647 7.62252 7.07218 8.31282 7.48296 8.75356L10.4581 11.9457L7.26598 14.9209C6.82524 15.3316 6.80095 16.0219 7.21174 16.4627C7.62252 16.9034 8.31282 16.9277 8.75356 16.5169L11.9457 13.5418L14.9209 16.7339C15.3316 17.1747 16.0219 17.1989 16.4627 16.7882C16.9034 16.3774 16.9277 15.6871 16.5169 15.2463L13.5418 12.0542L16.7339 9.07903Z"
                        fill="#0F172A"
                        fill-opacity="0.5"
                      />
                      <path
                        fill-rule="evenodd"
                        clip-rule="evenodd"
                        d="M0 12C0 5.37258 5.37258 0 12 0C18.6274 0 24 5.37258 24 12C24 18.6274 18.6274 24 12 24C5.37258 24 0 18.6274 0 12ZM12 21.8182C6.57757 21.8182 2.18182 17.4224 2.18182 12C2.18182 6.57757 6.57757 2.18182 12 2.18182C17.4224 2.18182 21.8182 6.57757 21.8182 12C21.8182 17.4224 17.4224 21.8182 12 21.8182Z"
                        fill="#0F172A"
                        fill-opacity="0.5"
                      />
                    </svg>