<svg width="30" height="30" viewBox="0 0 30 30" fill="none" xmlns="http://www.w3.org/2000/svg">
<g id="close-o">
<path d="M20.9174 11.3488C21.4683 10.8353 21.4987 9.97244 20.9852 9.42151C20.4717 8.87058 19.6088 8.84022 19.0579 9.3537L15.0677 13.0727L11.3488 9.08248C10.8353 8.53155 9.97244 8.50119 9.42151 9.01467C8.87058 9.52815 8.84022 10.391 9.3537 10.9419L13.0727 14.9321L9.08248 18.6511C8.53155 19.1646 8.50119 20.0274 9.01467 20.5784C9.52815 21.1293 10.391 21.1596 10.9419 20.6462L14.9321 16.9272L18.6511 20.9174C19.1646 21.4683 20.0274 21.4987 20.5784 20.9852C21.1293 20.4717 21.1596 19.6088 20.6462 19.0579L16.9272 15.0677L20.9174 11.3488Z" fill="#0F172A" fill-opacity="0.5"/>
<path fill-rule="evenodd" clip-rule="evenodd" d="M0 15C0 6.71573 6.71573 0 15 0C23.2843 0 30 6.71573 30 15C30 23.2843 23.2843 30 15 30C6.71573 30 0 23.2843 0 15ZM15 27.2727C8.22196 27.2727 2.72727 21.778 2.72727 15C2.72727 8.22196 8.22196 2.72727 15 2.72727C21.778 2.72727 27.2727 8.22196 27.2727 15C27.2727 21.778 21.778 27.2727 15 27.2727Z" fill="#0F172A" fill-opacity="0.5"/>
</g>
</svg>
