<svg xmlns="http://www.w3.org/2000/svg" width="21" height="18" viewBox="0 0 21 18" fill="none">
  <path fill-rule="evenodd" clip-rule="evenodd" d="M0.0113932 1.25661C0.0113932 0.562605 0.533728 0 1.17806 0H19.8333C20.4777 0 21 0.562605 21 1.25661V15.4868C21 16.8748 19.9553 18 18.6667 18H2.33333C1.04467 18 0 16.8748 0 15.4868V1.66403C0 1.60419 0.00388332 1.54533 0.0113932 1.48772V1.25661ZM2.33333 4.05101V15.4868H18.6667V4.05144L12.9751 10.1818C11.6082 11.6541 9.39216 11.6541 8.02533 10.1818L2.33333 4.05101ZM4.16771 2.47258H16.8327L11.3252 8.40472C10.8695 8.89546 10.1309 8.89546 9.67524 8.40472L4.16771 2.47258Z" fill="#0F172A" fill-opacity="0.7"/>
</svg>