<svg xmlns="http://www.w3.org/2000/svg" width="20" height="14" viewBox="0 0 20 14" fill="none">
  <path d="M18.76 5.6H0.84C0.0671999 5.6 0 6.2258 0 7C0 7.7742 0.0671999 8.4 0.84 8.4H18.76C19.5328 8.4 19.6 7.7742 19.6 7C19.6 6.2258 19.5328 5.6 18.76 5.6ZM18.76 11.2H0.84C0.0671999 11.2 0 11.8258 0 12.6C0 13.3742 0.0671999 14 0.84 14H18.76C19.5328 14 19.6 13.3742 19.6 12.6C19.6 11.8258 19.5328 11.2 18.76 11.2ZM0.84 2.8H18.76C19.5328 2.8 19.6 2.1742 19.6 1.4C19.6 0.6258 19.5328 0 18.76 0H0.84C0.0671999 0 0 0.6258 0 1.4C0 2.1742 0.0671999 2.8 0.84 2.8Z" fill="black"/>
</svg>